<svg xmlns="http://www.w3.org/2000/svg" width="256" height="256" viewBox="0 0 256 256">
<g>
<path d="M 0.00 0.00 L 256.00 0.00 L 200.25 0.02 C164.94,0.03 145.05,0.38 145.99,0.97 C146.81,1.49 149.96,2.19 152.99,2.53 C165.55,3.93 182.64,11.18 188.50,17.59 C189.60,18.79 191.58,20.10 192.91,20.51 C195.43,21.27 201.99,27.77 201.99,29.50 C201.99,30.05 199.95,34.55 197.45,39.50 C194.19,45.97 191.31,50.04 187.16,54.00 C181.96,58.97 177.56,63.99 173.63,69.46 C172.39,71.18 172.01,71.25 170.51,70.01 C169.30,69.00 168.96,67.66 169.32,65.39 C170.09,60.66 167.85,54.36 163.92,50.19 C158.20,44.12 144.22,40.83 132.00,42.69 L 126.50 43.53 L 123.00 68.68 C121.07,82.52 119.16,94.17 118.75,94.59 C117.41,95.93 117.96,98.65 119.94,100.44 C121.61,101.96 122.37,102.03 125.51,101.00 C127.55,100.32 130.98,100.07 133.32,100.41 C135.62,100.75 139.02,100.59 140.88,100.05 C145.67,98.66 147.57,99.98 147.53,104.67 C147.50,108.35 147.38,108.49 144.37,108.19 C141.50,107.90 141.19,108.16 140.58,111.44 C140.11,113.94 138.43,116.39 134.95,119.64 C132.23,122.19 130.00,125.04 130.00,125.97 C130.00,128.04 126.88,129.68 121.36,130.51 C116.48,131.25 113.51,134.10 112.49,139.00 C112.09,140.93 110.47,144.98 108.88,148.00 C107.30,151.02 106.00,154.68 106.00,156.13 C106.00,158.13 105.25,159.07 102.89,160.04 C100.72,160.95 99.22,162.65 97.90,165.74 C96.86,168.16 93.19,173.51 89.75,177.62 C86.31,181.73 82.46,186.53 81.20,188.29 C77.78,193.05 67.82,202.92 65.78,203.57 C64.80,203.88 64.00,204.85 64.00,205.72 C64.00,208.08 58.16,220.00 57.00,220.00 C56.45,220.00 56.00,220.71 56.00,221.58 C56.00,222.45 55.44,222.98 54.75,222.75 C53.94,222.48 53.44,219.97 53.33,215.61 C53.24,211.90 52.92,208.24 52.63,207.47 C52.33,206.69 52.49,204.81 52.99,203.28 C53.49,201.75 54.13,197.35 54.42,193.50 C54.96,186.37 56.15,176.07 57.88,163.50 C60.47,144.76 61.14,139.98 62.12,133.50 C62.70,129.65 63.56,123.57 64.03,120.00 C64.51,116.43 65.33,110.57 65.85,107.00 C66.38,103.43 67.32,96.45 67.94,91.50 C68.56,86.55 69.69,78.68 70.45,74.00 C71.21,69.32 72.12,62.62 72.48,59.11 L 73.13 52.72 L 69.49 53.31 C67.49,53.63 60.90,55.77 54.84,58.06 C46.82,61.09 43.52,61.92 42.72,61.12 C42.12,60.52 39.52,53.15 36.95,44.76 C32.79,31.16 32.44,29.32 33.75,27.80 C36.04,25.15 60.45,13.42 70.85,9.97 C81.74,6.35 101.51,2.06 108.00,1.91 C110.47,1.85 113.62,1.44 115.00,1.00 C116.38,0.56 91.06,0.15 58.75,0.10 L 0.00 0.00 Z" fill="rgb(54,186,253)"/>
<path d="M 120.18 99.14 C122.19,100.41 129.73,100.13 137.50,98.49 C158.00,94.17 168.65,82.06 167.84,64.00 C167.57,58.11 167.00,55.80 165.18,53.25 C161.84,48.56 157.07,45.33 151.06,43.63 C156.52,45.00 161.17,47.27 163.92,50.19 C167.85,54.36 170.09,60.66 169.32,65.39 C168.96,67.66 169.30,69.00 170.51,70.01 C172.01,71.25 172.39,71.18 173.63,69.46 C177.56,63.99 181.96,58.97 187.16,54.00 C191.31,50.04 194.19,45.97 197.45,39.50 C199.95,34.55 201.99,30.05 201.99,29.50 C201.99,27.77 195.43,21.27 192.91,20.51 C191.58,20.10 189.60,18.79 188.50,17.59 C185.05,13.81 177.69,9.74 169.66,6.75 C175.60,8.78 181.55,11.26 185.62,13.53 C195.85,19.25 207.00,30.46 211.37,39.44 C216.57,50.09 217.77,58.37 215.77,69.60 C213.47,82.55 212.05,87.71 210.43,89.06 C209.65,89.71 209.00,91.03 209.00,91.98 C209.00,94.15 200.04,106.46 195.44,110.61 C192.47,113.28 192.08,114.16 192.62,116.86 C192.97,118.59 193.53,120.01 193.88,120.02 C194.22,120.02 195.09,120.40 195.81,120.86 C197.95,122.22 194.39,128.69 187.66,135.67 C181.82,141.73 181.73,141.91 182.25,146.49 C182.97,152.95 181.08,153.33 175.75,147.81 C168.83,140.65 154.56,134.61 140.47,132.88 C130.56,131.67 117.17,133.05 115.41,135.46 C114.77,136.33 113.69,141.43 113.03,146.78 C112.36,152.12 110.09,168.85 107.98,183.95 C105.23,203.62 104.43,211.93 105.15,213.27 C105.92,214.72 107.11,215.09 110.33,214.91 C123.80,214.12 129.27,216.05 121.50,218.86 C117.66,220.25 117.24,221.12 119.49,222.99 C120.76,224.04 120.11,225.08 115.05,230.11 C111.79,233.35 108.71,236.00 108.21,236.00 C107.71,236.00 106.54,237.69 105.61,239.76 C104.68,241.83 102.39,244.57 100.52,245.85 C98.58,247.18 97.35,248.74 97.64,249.51 C98.60,252.00 94.20,253.00 82.32,252.99 C69.45,252.97 53.69,250.34 49.31,247.47 C46.86,245.86 46.80,245.59 47.48,238.16 C48.57,226.20 53.75,189.22 54.50,188.00 C54.68,187.70 54.95,186.55 55.22,184.91 C54.88,188.14 54.61,191.01 54.42,193.50 C54.13,197.35 53.49,201.75 52.99,203.28 C52.49,204.81 52.33,206.69 52.63,207.47 C52.92,208.24 53.24,211.90 53.33,215.61 C53.44,219.97 53.94,222.48 54.75,222.75 C55.44,222.98 56.00,222.45 56.00,221.58 C56.00,220.71 56.45,220.00 57.00,220.00 C58.16,220.00 64.00,208.08 64.00,205.72 C64.00,204.85 64.80,203.88 65.78,203.57 C67.82,202.92 77.78,193.05 81.20,188.29 C82.46,186.53 86.31,181.73 89.75,177.62 C93.19,173.51 96.86,168.16 97.90,165.74 C99.22,162.65 100.72,160.95 102.89,160.04 C105.25,159.07 106.00,158.13 106.00,156.13 C106.00,154.68 107.30,151.02 108.88,148.00 C110.47,144.98 112.09,140.93 112.49,139.00 C113.51,134.10 116.48,131.25 121.36,130.51 C126.88,129.68 130.00,128.04 130.00,125.97 C130.00,125.04 132.23,122.19 134.95,119.64 C138.43,116.39 140.11,113.94 140.58,111.44 C141.19,108.16 141.50,107.90 144.37,108.19 C147.38,108.49 147.50,108.35 147.53,104.67 C147.57,99.98 145.67,98.66 140.88,100.05 C139.02,100.59 135.62,100.75 133.32,100.41 C130.98,100.07 127.55,100.32 125.51,101.00 C122.37,102.03 121.61,101.96 119.94,100.44 C117.96,98.65 117.41,95.93 118.75,94.59 C119.08,94.26 120.35,86.84 121.83,76.86 C119.50,94.13 119.21,98.52 120.18,99.14 ZM 124.50 57.91 L 126.50 43.53 L 132.00 42.69 C135.27,42.19 138.66,42.07 141.99,42.26 C139.93,42.18 137.76,42.23 135.51,42.42 C131.11,42.79 127.23,43.41 126.89,43.79 C126.67,44.05 125.71,49.73 124.50,57.91 ZM 200.25 0.02 L 256.00 0.00 L 200.25 0.03 C164.74,0.05 145.09,0.40 146.12,1.01 C146.82,1.42 149.06,1.95 151.56,2.34 C149.02,1.98 146.68,1.41 145.99,0.97 C145.05,0.38 164.94,0.03 200.25,0.02 ZM 112.56 1.51 C113.21,1.36 113.72,1.18 114.00,1.00 C114.12,0.92 113.92,0.85 113.40,0.77 C114.67,0.85 115.24,0.92 115.00,1.00 C114.43,1.18 113.56,1.36 112.56,1.51 ZM 90.32 4.81 C83.42,6.32 76.10,8.22 70.85,9.97 C76.19,8.19 83.48,6.30 90.32,4.81 ZM 59.22 153.86 C59.68,150.48 60.08,147.67 60.42,145.22 C60.09,147.58 59.70,150.37 59.22,153.86 Z" fill="rgb(79,165,253)"/>
<path d="M 138.00 254.49 C129.60,255.62 135.86,255.78 192.25,255.88 L 256.00 256.00 L 0.00 256.00 L 47.25 255.88 C92.14,255.77 93.92,255.70 82.88,254.43 C75.82,253.62 68.79,252.51 62.96,251.35 C68.98,252.34 76.00,252.98 82.32,252.99 C94.20,253.00 98.60,252.00 97.64,249.51 C97.35,248.74 98.58,247.18 100.52,245.85 C102.39,244.57 104.68,241.83 105.61,239.76 C106.54,237.69 107.71,236.00 108.21,236.00 C108.71,236.00 111.79,233.35 115.05,230.11 C120.11,225.08 120.76,224.04 119.49,222.99 C117.24,221.12 117.66,220.25 121.50,218.86 C129.27,216.05 123.80,214.12 110.33,214.91 C107.11,215.09 105.92,214.72 105.15,213.27 C105.06,213.11 104.99,212.83 104.95,212.44 C106.42,212.86 113.85,213.01 122.88,212.79 C138.81,212.40 141.26,212.10 148.39,209.64 C165.50,203.74 173.86,195.16 177.49,179.78 C182.79,157.29 172.68,140.89 150.51,134.82 C160.97,137.56 170.49,142.36 175.75,147.81 C181.08,153.33 182.97,152.95 182.25,146.49 C181.73,141.91 181.82,141.73 187.66,135.67 C194.39,128.69 197.95,122.22 195.81,120.86 C195.09,120.40 194.22,120.02 193.88,120.02 C193.53,120.01 192.97,118.59 192.62,116.86 C192.08,114.16 192.47,113.28 195.44,110.61 C197.21,109.01 199.62,106.21 201.92,103.25 C199.82,106.04 197.58,108.77 195.74,110.70 L 192.70 113.91 L 200.27 121.30 C223.49,144.00 230.19,175.13 218.09,204.07 C206.18,232.55 180.41,248.78 138.00,254.49 ZM 105.87 199.89 C106.37,195.75 107.06,190.53 107.96,184.09 C107.15,189.90 106.43,195.36 105.87,199.89 Z" fill="rgb(120,138,251)"/>
<path d="M 0.00 128.00 L 0.00 0.00 L 57.75 0.02 C95.40,0.03 114.98,0.37 114.00,1.00 C113.18,1.53 110.47,1.98 108.00,1.99 C101.74,2.02 82.04,6.25 70.85,9.97 C60.45,13.42 36.04,25.15 33.75,27.80 C32.44,29.32 32.79,31.16 36.95,44.76 C39.52,53.15 42.12,60.52 42.72,61.12 C43.52,61.92 46.82,61.09 54.84,58.06 C60.90,55.77 67.49,53.63 69.49,53.31 L 73.13 52.72 L 72.48 59.11 C72.12,62.62 71.21,69.32 70.45,74.00 C69.69,78.68 68.56,86.55 67.94,91.50 C67.32,96.45 66.38,103.43 65.85,107.00 C65.33,110.57 64.51,116.43 64.03,120.00 C63.56,123.57 62.70,129.65 62.12,133.50 C61.13,140.05 60.22,146.50 57.89,163.50 C57.36,167.35 56.53,174.19 56.05,178.70 C55.57,183.21 54.87,187.39 54.50,188.00 C53.75,189.22 48.57,226.20 47.48,238.16 C46.80,245.59 46.86,245.86 49.31,247.47 C52.47,249.54 67.59,252.67 82.88,254.43 C93.92,255.70 92.14,255.77 47.25,255.88 L 0.00 256.00 L 0.00 128.00 ZM 138.00 254.49 C180.41,248.78 206.18,232.55 218.09,204.07 C230.19,175.13 223.49,144.00 200.27,121.30 L 192.70 113.91 L 195.74 110.70 C200.85,105.34 209.00,93.82 209.00,91.98 C209.00,91.03 209.65,89.71 210.43,89.06 C212.05,87.71 213.47,82.55 215.77,69.60 C217.77,58.37 216.57,50.09 211.37,39.44 C207.00,30.46 195.85,19.25 185.62,13.53 C177.42,8.94 161.53,3.53 153.62,2.62 C150.38,2.25 147.01,1.53 146.12,1.01 C145.09,0.40 164.74,0.05 200.25,0.03 L 256.00 0.00 L 256.00 128.00 L 256.00 256.00 L 192.25 255.88 C135.86,255.78 129.60,255.62 138.00,254.49 ZM 104.70 212.32 C104.39,211.82 105.87,199.06 107.98,183.96 C110.09,168.86 112.36,152.12 113.03,146.78 C113.69,141.43 114.77,136.33 115.41,135.46 C117.18,133.03 130.56,131.67 140.57,132.90 C169.57,136.44 183.53,154.17 177.49,179.78 C173.86,195.16 165.50,203.74 148.39,209.64 C141.26,212.10 138.81,212.40 122.88,212.79 C112.98,213.03 105.01,212.82 104.70,212.32 ZM 120.18 99.14 C119.12,98.46 119.57,93.23 122.57,71.40 C124.61,56.61 126.55,44.18 126.89,43.79 C127.23,43.41 131.11,42.79 135.51,42.42 C149.07,41.29 159.32,45.03 165.18,53.25 C167.00,55.80 167.57,58.11 167.84,64.00 C168.65,82.06 158.00,94.17 137.50,98.49 C129.73,100.13 122.19,100.41 120.18,99.14 Z" fill="rgb(253,254,254)"/>
</g>
</svg>